<svg xmlns="http://www.w3.org/2000/svg" viewBox="0 0 29 29">
	<g fill="none" fill-rule="evenodd">
		<path fill="#B6BBAF" d="M4.936 14.502c0-6.021 4.646-10.977 10.542-11.472C8.726 2.463 2.993 7.81 2.993 14.502c0 6.349 5.165 11.514 11.514 11.514.327 0 .65-.015.97-.042-5.895-.494-10.541-5.45-10.541-11.472" />
		<path fill="#6579AD" d="M14.507 15.548a1.046 1.046 0 1 1 0-2.092 1.046 1.046 0 0 1 0 2.092zm0-4.253a3.207 3.207 0 1 0 0 6.415 3.207 3.207 0 0 0 0-6.415z" />
		<path fill="#8694BE" d="M14.542 15.546c-.073.673-.11 1.356-.11 2.049v.113l.075.002a3.207 3.207 0 0 0 .949-6.272c-.234.678-.43 1.374-.585 2.085 1.067.397.814 1.986-.33 2.023" />
		<path fill="#5B5C62" d="M15.923 10.11c0 .655-.53 1.185-1.184 1.185h-.464c-.654 0-1.185-.53-1.185-1.184V4.294c0-.654.53-1.184 1.185-1.184h.464c.654 0 1.184.53 1.184 1.184v5.817" />
		<path fill="#404149" d="M14.507 10.11V4.295c0-.485.291-.9.708-1.084-.279-.122-.456-.1-.94-.1-.654 0-1.185.53-1.185 1.184v5.817c0 .654.53 1.184 1.185 1.184h.464c.17 0 .33-.036.476-.1a1.184 1.184 0 0 1-.708-1.084" />
		<path fill="#5B5C62" d="M10.736 11.966c.622.202.963.87.76 1.492l-.143.441c-.202.622-.87.963-1.492.76l-5.532-1.797a1.184 1.184 0 0 1-.76-1.492l.143-.441c.202-.622.87-.963 1.492-.76l5.532 1.797" />
		<path fill="#404149" d="M10.198 13.398l-5.59-1.817a1.195 1.195 0 0 1-.797-.876c-.077.135-.088.19-.243.665-.202.622.139 1.29.76 1.492l5.533 1.798a1.184 1.184 0 0 0 1.492-.76l.143-.442c.055-.17.069-.341.049-.507a1.198 1.198 0 0 1-1.347.447" />
		<path fill="#5B5C62" d="M18.267 11.966c-.622.202-.963.87-.76 1.492l.143.441c.202.622.87.963 1.492.76l5.532-1.797c.622-.202.962-.87.76-1.492l-.143-.441a1.185 1.185 0 0 0-1.492-.76l-5.532 1.797" />
		<path fill="#404149" d="M18.603 13.313l5.617-1.825c.468-.152.96-.001 1.269.343a1.181 1.181 0 0 0-.055-.461l-.143-.441a1.185 1.185 0 0 0-1.492-.76l-5.532 1.797c-.622.202-.963.87-.76 1.492l.143.441c.036.111.087.213.15.304a1.2 1.2 0 0 1 .803-.89" />
		<path fill="#5B5C62" d="M10.62 17.056a1.184 1.184 0 0 1 1.653-.262l.376.273c.529.384.646 1.125.262 1.654l-3.42 4.706a1.185 1.185 0 0 1-1.654.262l-.375-.273a1.184 1.184 0 0 1-.262-1.654l3.42-4.706" />
		<path fill="#404149" d="M8.177 22.764l3.602-4.957c.265-.364.69-.542 1.108-.509a1.178 1.178 0 0 0-.238-.231l-.376-.273a1.184 1.184 0 0 0-1.654.262L7.2 21.762c-.384.529-.267 1.27.262 1.654l.375.273c.044.031.088.058.134.082a1.243 1.243 0 0 1 .206-1.007" />
		<path fill="#5B5C62" d="M18.44 17.056a1.184 1.184 0 0 0-1.653-.262l-.376.273a1.184 1.184 0 0 0-.262 1.654l3.42 4.706a1.184 1.184 0 0 0 1.653.262l.376-.273c.529-.384.646-1.125.262-1.654l-3.42-4.706" />
		<path fill="#404149" d="M20.808 22.768l-3.53-4.859a1.221 1.221 0 0 1-.082-1.305c-.275.068-.39.176-.785.463a1.184 1.184 0 0 0-.262 1.654l3.42 4.706c.384.529 1.124.646 1.653.262l.376-.273c.06-.044.115-.093.165-.146a1.22 1.22 0 0 1-.955-.502" />
		<path fill="#E4E4DF" d="M14.507 13.456a1.046 1.046 0 1 1 0 2.092 1.046 1.046 0 0 1 0-2.092" />
		<path fill="#EAECEB" d="M14.507 3.104c-6.285 0-11.399 5.113-11.399 11.398 0 6.285 5.114 11.399 11.399 11.399 6.285 0 11.398-5.114 11.398-11.399 0-6.285-5.113-11.398-11.398-11.398zm0 25.264C6.86 28.368.64 22.148.64 14.502.641 6.857 6.861.637 14.507.637c7.645 0 13.865 6.22 13.865 13.865 0 7.646-6.22 13.866-13.865 13.866z" />
		<path fill="#D8D8D2" d="M3.32 16.69C1.903 9.438 7.408 1.447 15.76.695c-.413-.037-.831-.057-1.253-.057C6.86.637.64 6.857.64 14.502c0 8.116 6.98 14.541 15.118 13.808-6.332-.57-11.451-5.415-12.439-11.62" />
		<path fill="#232323" d="M24.112 9.537c-.17.004-.337.031-.5.084-6.002 1.95-5.897 1.825-6.326 2.329a3.802 3.802 0 0 0-1.111-.837 1.75 1.75 0 0 0 .314-1.002c0-6.33.021-5.96-.056-6.258a10.857 10.857 0 0 1 7.68 5.684zm.375 2.778c-5.982 1.944-5.584 1.828-5.72 1.828a.606.606 0 0 1-.558-.37 3.74 3.74 0 0 0-.193-.658.61.61 0 0 1 .42-.602l5.532-1.797c.32-.105.663.07.767.39l.143.442a.609.609 0 0 1-.39.767zM21.385 22.1a.61.61 0 0 1-.122.84c-.466.374-.586.4-.745.4a.604.604 0 0 1-.493-.251c-3.694-5.085-3.583-4.815-3.528-5.16a.604.604 0 0 1 .16-.323c.2-.14.163-.132.459-.347a.608.608 0 0 1 .85.135l3.42 4.706zM9.576 24.14c.29-.215.047.072 3.791-5.081.19-.262.298-.56.327-.86a3.76 3.76 0 0 0 1.654-.011c.058.642.03.462 3.746 5.577.1.137.217.257.349.358a10.789 10.789 0 0 1-9.867.017zM3.75 13.226c.254.16-.1.023 5.924 1.981.369.12.755.113 1.107-.006.057.304.15.595.275.868-.362.11-.684.336-.911.649-3.722 5.122-3.517 4.805-3.63 5.086a10.786 10.786 0 0 1-2.765-8.578zm8.812-9.373c-.078.301-.056-.061-.056 6.258 0 .372.117.717.315 1.002-.424.21-.802.497-1.118.843-.43-.51-.33-.385-6.33-2.335a1.761 1.761 0 0 0-.49-.084 10.857 10.857 0 0 1 7.68-5.684zm2.777 6.258a.61.61 0 0 1-.61.609h-.463a.61.61 0 0 1-.61-.61V4.295a.61.61 0 0 1 .61-.609h.464a.61.61 0 0 1 .609.609v5.817zm-5.31 4.002l-5.532-1.798a.61.61 0 0 1-.39-.767l.143-.441a.608.608 0 0 1 .767-.391l5.532 1.797a.61.61 0 0 1 .418.634c-.072.186-.13.378-.171.576a.607.607 0 0 1-.766.39zm2.407 4.27l-3.419 4.706a.604.604 0 0 1-.493.25c-.245 0-.345-.107-.733-.388a.61.61 0 0 1-.134-.85l3.419-4.707a.604.604 0 0 1 .81-.16c.17.164.356.311.555.44a.61.61 0 0 1-.005.709zm4.514-4.747l.146.448c.35 2.18-2.01 3.786-3.901 2.704-.127-.129-.19-.167-.585-.454a2.621 2.621 0 0 1-.698-2.32c.132-.409.146-.441.17-.556.952-2.194 4.133-2.085 4.868.178zm-14.426.866c0 11.436 14.908 16.596 21.76 6.892a.575.575 0 1 0-.94-.664c-.257.366-.536.712-.833 1.039-.11-.26.108.072-3.614-5.051a1.764 1.764 0 0 0-.953-.66c.122-.27.214-.555.27-.853.777.256.926.057 6.629-1.795.143-.047.277-.113.401-.191a10.757 10.757 0 0 1-.99 5.967.575.575 0 0 0 1.036.5C29.11 11.763 23.297 2.53 14.498 2.53 7.895 2.529 2.524 7.9 2.524 14.502z" />
		<path fill="#232323" d="M20.33 1.911a.575.575 0 0 0 .248.775c4.447 2.298 7.21 6.826 7.21 11.816 0 7.328-5.962 13.29-13.29 13.29-7.329 0-13.29-5.962-13.29-13.29 0-9.125 9.033-15.546 17.636-12.56a.575.575 0 1 0 .377-1.087 14.37 14.37 0 0 0-4.723-.793C6.535.062.057 6.54.057 14.502c0 7.963 6.478 14.441 14.44 14.441 7.963 0 14.442-6.478 14.442-14.44 0-5.547-3.152-10.42-7.833-12.839a.575.575 0 0 0-.775.247z" />
		<path fill="#232323" d="M14.498 14.973a.471.471 0 1 1 0-.942.471.471 0 0 1 0 .942zm0-2.092c-.894 0-1.622.727-1.622 1.621s.728 1.621 1.622 1.621c.894 0 1.62-.727 1.62-1.62 0-.895-.726-1.622-1.62-1.622z" />
	</g>
</svg>