<svg xmlns="http://www.w3.org/2000/svg" xmlns:xlink="http://www.w3.org/1999/xlink" width="18" height="19"><defs><path id="a" d="M0 0h9v18H0z"/><path id="c" d="M.002.006h17.963V18H.002z"/><path id="e" d="M0 0h9v19H0z"/><path id="g" d="M.002 0H18v18H.002z"/></defs><g fill="none" fill-rule="evenodd" transform="translate(0 .5)"><g transform="translate(9)"><mask id="b" fill="#fff"><use xlink:href="#a"/></mask><path fill="#97D4EA" d="M-.018 4.542a.746.746 0 0 1-.529-.22l-2.17-2.173a.75.75 0 0 1 0-1.06.748.748 0 0 1 1.059 0l1.64 1.643 1.641-1.644a.748.748 0 0 1 1.059 0 .75.75 0 0 1 0 1.06L.512 4.323a.746.746 0 0 1-.53.22m2.17 12.595a.746.746 0 0 1-.529-.22l-1.64-1.643-1.641 1.644a.748.748 0 0 1-1.059 0 .75.75 0 0 1 0-1.06l2.17-2.174a.748.748 0 0 1 1.059 0l2.17 2.173a.75.75 0 0 1-.53 1.28m-9.542-5.21a.75.75 0 0 1-.53-1.28l1.642-1.644-1.641-1.644a.75.75 0 0 1 0-1.06.748.748 0 0 1 1.058 0l2.17 2.174a.75.75 0 0 1 0 1.06l-2.17 2.174a.745.745 0 0 1-.529.22" mask="url(#b)"/><g mask="url(#b)"><g transform="translate(-9)"><mask id="d" fill="#fff"><use xlink:href="#c"/></mask><path fill="#97D4EA" d="M16.355 11.926a.746.746 0 0 1-.53-.22l-2.17-2.173a.75.75 0 0 1 0-1.06l2.17-2.174a.748.748 0 0 1 1.06 0 .75.75 0 0 1 0 1.06l-1.642 1.644 1.641 1.643a.75.75 0 0 1-.53 1.28" mask="url(#d)"/><path fill="#539BC8" d="M7.324 9.954V8.052l1.658-.958 1.66.958v1.902l-1.66.957-1.658-.957zm9.892-1.7h-5.078v-.636a.75.75 0 0 0-.203-.512l2.14-2.143a.75.75 0 0 0 0-1.06.748.748 0 0 0-1.059 0l-2.4 2.404-.885-.511V.756a.75.75 0 1 0-1.497 0v5.04l-.885.51-2.4-2.404a.748.748 0 0 0-1.059 0 .75.75 0 0 0 0 1.06l2.14 2.144a.75.75 0 0 0-.203.512v.635H.749a.75.75 0 0 0 0 1.5h5.078v.634a.75.75 0 0 0 .203.513l-2.14 2.143a.75.75 0 0 0 .53 1.28.746.746 0 0 0 .529-.22l2.4-2.404.885.511v5.04a.75.75 0 1 0 1.497 0v-5.04l.885-.51 2.4 2.403a.746.746 0 0 0 1.059 0 .75.75 0 0 0 0-1.06l-2.14-2.143a.75.75 0 0 0 .203-.513v-.634h5.078a.75.75 0 0 0 0-1.5z" mask="url(#d)"/></g></g></g><mask id="f" fill="#fff"><use xlink:href="#e"/></mask><g mask="url(#f)"><mask id="h" fill="#fff"><use xlink:href="#g"/></mask><path fill="#F8C53B" mask="url(#h)" d="M16.765 9L18 11.412l-2.276 1.47-.136 2.706-2.706.136L11.412 18 9 16.765 6.588 18l-1.47-2.276-2.706-.136-.136-2.706L0 11.412 1.235 9 0 6.588l2.276-1.47.136-2.706 2.706-.136L6.588 0 9 1.235 11.412 0l1.47 2.276 2.706.136.136 2.706L18 6.588 16.765 9"/></g><path fill="#F0A837" mask="url(#f)" d="M16.765 9L18 11.412l-2.276 1.47-.136 2.706-2.706.136L11.412 18 9 16.765V1.235L11.412 0l1.47 2.276 2.706.136.136 2.706L18 6.588 16.765 9"/><path fill="#EB903D" d="M9 3.643a5.357 5.357 0 1 1 0 10.714A5.357 5.357 0 0 1 9 3.643" mask="url(#f)"/><path fill="#E57037" d="M14.357 9A5.357 5.357 0 0 1 9 14.357V3.643A5.357 5.357 0 0 1 14.357 9" mask="url(#f)"/></g></svg>