<svg xmlns="http://www.w3.org/2000/svg" xmlns:xlink="http://www.w3.org/1999/xlink" width="18" height="18" viewBox="0 0 18 18">
  <defs>
    <polygon id="snowflake-a" points=".002 .006 17.965 .006 17.965 18 .002 18"/>
  </defs>
  <g fill="none" fill-rule="evenodd">
    <path fill="#97D4EA" d="M8.98245614 4.54190625C8.79087719 4.54190625 8.59929825 4.46874609 8.45312281 4.32232031L6.28301754 2.14867969C5.99070175 1.85586328 5.99070175 1.38114844 6.28301754 1.08836719 6.57536842.795585937 7.04933333.795585937 7.34168421 1.08836719L8.98245614 2.73185156 10.6232281 1.08836719C10.9155789.795585937 11.3895439.795585937 11.6818947 1.08836719 11.9742105 1.38118359 11.9742105 1.85586328 11.6818947 2.14867969L9.51178947 4.32232031C9.36561404 4.46871094 9.17403509 4.54190625 8.98245614 4.54190625M11.1525965 17.1370898C10.9609825 17.1370898 10.7694035 17.0638945 10.623193 16.9175039L8.98245614 15.2740195 7.34168421 16.9175039C7.04933333 17.2102852 6.57536842 17.2102852 6.28301754 16.9175039 5.99070175 16.6246875 5.99070175 16.1500078 6.28301754 15.8571914L8.45312281 13.6835508C8.74547368 13.3907344 9.21940351 13.3907344 9.51175439 13.6835508L11.6818596 15.8571914C11.9741754 16.1500078 11.9741754 16.6247227 11.6818596 16.9175039 11.5357193 17.0638945 11.3441053 17.1370898 11.1525965 17.1370898M1.61003509 11.9263008C1.41845614 11.9263008 1.22684211 11.8531055 1.08066667 11.7067148.788350877 11.4139336.788350877 10.9392188 1.08066667 10.6464023L2.72150877 9.00291797 1.08066667 7.35946875C.788350877 7.06665234.788350877 6.59197266 1.08066667 6.29915625 1.37301754 6.00633984 1.84698246 6.00633984 2.13929825 6.29915625L4.30940351 8.47272656C4.60168421 8.76554297 4.60168421 9.24022266 4.30940351 9.53303906L2.13929825 11.7066445C1.99315789 11.8531055 1.80157895 11.9263008 1.61003509 11.9263008"/>
    <mask id="snowflake-b" fill="#fff">
      <use xlink:href="#snowflake-a"/>
    </mask>
    <path fill="#97D4EA" d="M16.3548772,11.9263008 C16.1633333,11.9263008 15.9717544,11.8531055 15.825614,11.7067148 L13.6555088,9.53310938 C13.3632281,9.24032813 13.3632281,8.76561328 13.6555088,8.47279688 L15.825614,6.29922656 C16.1179298,6.00641016 16.5918947,6.00641016 16.8842456,6.29922656 C17.1765614,6.59200781 17.1765614,7.0666875 16.8842456,7.35953906 L15.2434035,9.00291797 L16.8842456,10.6464023 C17.1765614,10.9392188 17.1765614,11.4138984 16.8842456,11.7067148 C16.7380702,11.8531055 16.5464211,11.9263008 16.3548772,11.9263008" mask="url(#snowflake-b)"/>
    <path fill="#539BC8" d="M7.3237193,9.95414062 L7.3237193,8.05166016 L8.98245614,7.09439062 L10.641193,8.05166016 L10.641193,9.95414062 L8.98245614,10.9114453 L7.3237193,9.95414062 Z M17.2163509,8.25317578 L12.1383158,8.25317578 L12.1383158,7.61835937 C12.1383158,7.42507031 12.0637193,7.24264453 11.9353333,7.10560547 L14.0747368,4.96276172 C14.3670877,4.66998047 14.3670877,4.19523047 14.0747368,3.90244922 C13.782386,3.60966797 13.3084561,3.60966797 13.0161053,3.90244922 L10.6159298,6.30653906 L9.73101754,5.79582422 L9.73101754,0.755648437 C9.73101754,0.341578125 9.39582456,0.00587109375 8.98245614,0.00587109375 C8.56908772,0.00587109375 8.23389474,0.341542969 8.23389474,0.755648437 L8.23389474,5.79578906 L7.34898246,6.30650391 L4.94880702,3.90241406 C4.65645614,3.60963281 4.18252632,3.60963281 3.89017544,3.90241406 C3.59785965,4.19523047 3.59785965,4.66998047 3.89017544,4.96272656 L6.02957895,7.10557031 C5.90119298,7.24264453 5.82663158,7.42507031 5.82663158,7.61832422 L5.82663158,8.25314062 L0.748561404,8.25314062 C0.335122807,8.25317578 0,8.5888125 0,9.00291797 C0,9.41698828 0.335122807,9.75269531 0.748561404,9.75269531 L5.82663158,9.75269531 L5.82663158,10.3874766 C5.82663158,10.5807656 5.90126316,10.7631914 6.02961404,10.9002656 L3.89017544,13.0431094 C3.59785965,13.3359258 3.59785965,13.8106758 3.89017544,14.1034219 C4.03635088,14.2498125 4.22796491,14.323043 4.41950877,14.323043 C4.61112281,14.323043 4.80263158,14.2498125 4.94884211,14.1034219 L7.34901754,11.6993672 L8.23392982,12.210082 L8.23392982,17.2502227 C8.23392982,17.6643281 8.56912281,18 8.98249123,18 C9.39585965,18 9.73105263,17.6643281 9.73105263,17.2502227 L9.73105263,12.210082 L10.6159649,11.6993672 L13.0161404,14.1034219 C13.1623158,14.2498125 13.3538596,14.323043 13.5454737,14.323043 C13.7370175,14.323043 13.9285965,14.2498125 14.074807,14.1034219 C14.3671579,13.8106055 14.3671579,13.3358906 14.074807,13.0431094 L11.9354035,10.9002656 C12.0637895,10.7632266 12.138386,10.5807656 12.138386,10.3874766 L12.138386,9.75269531 L17.2164211,9.75269531 C17.6298246,9.75269531 17.9649825,9.41698828 17.9649825,9.00291797 C17.9649123,8.5888125 17.6297544,8.25317578 17.2163509,8.25317578 Z" mask="url(#snowflake-b)"/>
  </g>
</svg>
