<svg xmlns="http://www.w3.org/2000/svg" xmlns:xlink="http://www.w3.org/1999/xlink" width="18" height="18" viewBox="0 0 18 18">
  <defs>
    <polygon id="sun-a" points=".002 0 18 0 18 18 .002 18"/>
  </defs>
  <g fill="none" fill-rule="evenodd">
    <mask id="sun-b" fill="#fff">
      <use xlink:href="#sun-a"/>
    </mask>
    <polyline fill="#F8C53B" points="16.765 9 18 11.412 15.724 12.882 15.588 15.588 12.882 15.724 11.412 18 9 16.765 6.588 18 5.118 15.724 2.412 15.588 2.276 12.882 0 11.412 1.235 9 0 6.588 2.276 5.118 2.412 2.412 5.118 2.276 6.588 0 9 1.235 11.412 0 12.882 2.276 15.588 2.412 15.724 5.118 18 6.588 16.765 9" mask="url(#sun-b)"/>
    <polyline fill="#F0A837" points="16.765 9 18 11.412 15.724 12.882 15.588 15.588 12.882 15.724 11.412 18 9 16.765 9 1.235 11.412 0 12.882 2.276 15.588 2.412 15.724 5.118 18 6.588 16.765 9"/>
    <path fill="#EB903D" d="M9,3.64264453 C11.9587852,3.64264453 14.3573555,6.04121484 14.3573555,9 C14.3573555,11.9587852 11.9587852,14.3573555 9,14.3573555 C6.04121484,14.3573555 3.64264453,11.9587852 3.64264453,9 C3.64264453,6.04121484 6.04121484,3.64264453 9,3.64264453"/>
    <path fill="#E57037" d="M14.3573555,9 C14.3573555,11.9588555 11.9588555,14.3573555 9,14.3573555 L9,3.64264453 C11.9588555,3.64264453 14.3573555,6.04114453 14.3573555,9"/>
  </g>
</svg>
