<svg xmlns="http://www.w3.org/2000/svg" xmlns:xlink="http://www.w3.org/1999/xlink" viewBox="0 0 29 29">
	<defs>
		<path id="a" d="M.003.003H29V29H.003z" />
	</defs>
	<g fill="none" fill-rule="evenodd">
		<path fill="#6E7074" d="M14.505.428c7.772 0 14.073 6.301 14.073 14.074 0 7.772-6.3 14.073-14.073 14.073-7.773 0-14.073-6.301-14.073-14.073C.432 6.729 6.732.428 14.505.428zM14.5 23.45a8.95 8.95 0 1 0 0-17.898 8.95 8.95 0 0 0 0 17.898z" />
		<path fill="#50535A" d="M1.846 14.502C1.846 6.966 7.768.814 15.212.446c-.234-.012-.47-.018-.707-.018C6.732.428.43 6.73.43 14.502c0 8.021 6.707 14.456 14.781 14.056-7.444-.369-13.366-6.52-13.366-14.056" />
		<mask id="b" fill="#fff">
			<use xlink:href="#a" />
		</mask>
		<path fill="#232323" d="M23.588 24.674L23.023 24a.425.425 0 1 0-.651.546l.566.675c-.4.316-.819.609-1.253.879l-.441-.764a.425.425 0 0 0-.736.424l.442.766c-.448.242-.91.459-1.387.65l-.303-.834a.425.425 0 1 0-.798.291l.303.834c-.482.159-.975.292-1.48.397l-.153-.875a.425.425 0 1 0-.837.148l.154.873c-.5.072-1.01.117-1.526.133v-.886a.425.425 0 1 0-.85 0v.886a13.66 13.66 0 0 1-1.525-.133l.154-.873a.425.425 0 1 0-.837-.148l-.154.875a13.528 13.528 0 0 1-1.48-.397l.304-.834a.425.425 0 1 0-.798-.29l-.304.832c-.476-.19-.939-.407-1.387-.649l.443-.766a.425.425 0 0 0-.736-.424l-.441.764a13.54 13.54 0 0 1-1.253-.88l.566-.674a.425.425 0 1 0-.65-.546l-.566.674a13.82 13.82 0 0 1-1.083-1.082L5 23.026a.425.425 0 0 0-.546-.65l-.675.566c-.315-.4-.609-.82-.879-1.254l.764-.44a.425.425 0 1 0-.424-.737l-.766.443a13.48 13.48 0 0 1-.65-1.387l.834-.304a.425.425 0 0 0-.29-.798l-.835.304a13.528 13.528 0 0 1-.397-1.48l.875-.154a.425.425 0 1 0-.148-.837l-.873.154c-.072-.5-.117-1.01-.133-1.525h.886a.425.425 0 1 0 0-.85H.857c.016-.516.06-1.025.133-1.526.932.165.89.16.947.16.512 0 .582-.753.074-.842l-.875-.155c.105-.503.238-.997.397-1.479l.834.303a.424.424 0 1 0 .29-.798l-.833-.303c.191-.476.408-.94.65-1.387l.766.442a.425.425 0 0 0 .424-.736L2.9 7.315c.27-.434.563-.853.88-1.253.72.605.747.666.947.666A.425.425 0 0 0 5 5.978l-.674-.566c.34-.38.702-.742 1.082-1.082l.566.674a.425.425 0 1 0 .65-.546l-.566-.675c.4-.316.82-.61 1.254-.88l.44.765a.425.425 0 0 0 .737-.425l-.443-.766c.448-.241.911-.458 1.387-.649l.303.833a.425.425 0 1 0 .799-.29l-.304-.834c.482-.16.976-.292 1.48-.397l.154.874a.425.425 0 0 0 .837-.147l-.154-.874c.5-.072 1.01-.117 1.525-.133v.886a.425.425 0 1 0 .85 0V.86a13.71 13.71 0 0 1 1.526.133l-.154.873a.425.425 0 0 0 .837.148l.154-.874c.504.105.997.238 1.479.397l-.303.834a.425.425 0 0 0 .798.29l.303-.833c.476.191.94.408 1.387.65l-.442.765a.425.425 0 0 0 .736.425l.44-.764c.435.27.854.563 1.254.879l-.566.675a.425.425 0 0 0 .325.698c.253 0 .299-.12.891-.826.38.34.742.702 1.082 1.082l-.674.566a.425.425 0 1 0 .546.65l.675-.566c.316.4.61.819.88 1.253l-.765.441a.425.425 0 1 0 .425.736l.766-.442c.241.448.458.91.649 1.387l-.833.303a.425.425 0 0 0 .29.798l.834-.303c.16.482.292.976.397 1.48l-.874.154c-.508.09-.44.843.073.843.057 0 .015.004.948-.16.072.5.117 1.009.133 1.525h-.886a.425.425 0 1 0 0 .85h.886a13.671 13.671 0 0 1-.133 1.525l-.874-.154a.425.425 0 1 0-.147.837l.874.154a13.53 13.53 0 0 1-.397 1.48l-.833-.304a.425.425 0 1 0-.29.799l.832.303c-.19.476-.408.939-.65 1.387l-.765-.442a.425.425 0 1 0-.425.735l.764.441c-.27.435-.563.853-.879 1.254l-.675-.567a.425.425 0 1 0-.546.651l.674.566c-.34.38-.701.741-1.082 1.082zM24.75 4.25A14.403 14.403 0 0 0 14.498.003C6.485.003 0 6.488 0 14.502 0 22.515 6.484 29 14.498 29c3.873 0 7.514-1.508 10.252-4.246 5.666-5.667 5.667-14.837 0-20.504z" mask="url(#b)" />
	</g>
</svg>